<svg xmlns="http://www.w3.org/2000/svg" xmlns:xlink="http://www.w3.org/1999/xlink" width="500" zoomAndPan="magnify" viewBox="0 0 375 374.999991" height="500" preserveAspectRatio="xMidYMid meet" version="1.0"><defs><g/><clipPath id="3371c965e9"><path d="M 59 98.289062 L 325 98.289062 L 325 161 L 59 161 Z M 59 98.289062 " clip-rule="nonzero"/></clipPath></defs><g clip-path="url(#3371c965e9)"><path fill="#000000" d="M 324.199219 153.609375 C 311.832031 164.601562 287.996094 162.882812 275.21875 150.105469 C 272.597656 147.046875 271.96875 143.066406 272.53125 139.074219 C 265.933594 136.636719 258.515625 137.320312 249.722656 139.683594 C 239.210938 142.257812 212.175781 149.363281 196.429688 146.535156 C 183.847656 144.351562 173.449219 132.023438 180.925781 119.632812 C 184.824219 114.207031 195.222656 108.511719 184.488281 110.574219 C 148.199219 112.707031 114.167969 130.195312 82.816406 149.085938 C 74.847656 155.441406 46.328125 161.894531 65.636719 150.457031 C 100.484375 124.066406 142.132812 100.925781 187.28125 99.011719 C 195.703125 98.300781 226.121094 98.722656 216.078125 112.753906 C 211.578125 114.132812 206.316406 112.054688 202.28125 114.972656 C 195.0625 120.019531 182.675781 130.496094 196.628906 135.144531 C 219.136719 144.113281 270.285156 112.945312 285.949219 134.289062 C 288.796875 138.03125 282.8125 140.804688 284.773438 143.441406 C 291.265625 153.15625 328.714844 146.808594 324.199219 153.609375 Z M 324.199219 153.609375 " fill-opacity="1" fill-rule="nonzero"/></g><g fill="#000000" fill-opacity="1"><g transform="translate(28.323701, 249.037068)"><g><path d="M 66.78125 -30.359375 C 64.550781 -21.921875 60.753906 -15.097656 55.390625 -9.890625 C 50.023438 -4.679688 43.703125 -1.320312 36.421875 0.1875 C 38.765625 1.988281 41.382812 2.890625 44.28125 2.890625 C 45.78125 2.890625 47.117188 2.601562 48.296875 2.03125 C 49.472656 1.457031 50.632812 0.71875 51.78125 -0.1875 C 51.894531 -0.300781 52.222656 -0.550781 52.765625 -0.9375 C 53.304688 -1.332031 53.789062 -1.53125 54.21875 -1.53125 C 54.757812 -1.53125 55.253906 -0.914062 55.703125 0.3125 C 56.160156 1.550781 56.390625 3.070312 56.390625 4.875 C 56.390625 6.6875 56.144531 8.40625 55.65625 10.03125 C 54.757812 13.164062 53.148438 15.601562 50.828125 17.34375 C 48.503906 19.09375 45.597656 19.96875 42.109375 19.96875 C 34.640625 19.96875 29.398438 15.421875 26.390625 6.328125 L 24.578125 1 C 18.015625 0.507812 12.878906 -1.523438 9.171875 -5.109375 C 5.460938 -8.691406 3.609375 -13.613281 3.609375 -19.875 C 3.609375 -22.945312 4.125 -26.441406 5.15625 -30.359375 C 6.894531 -37.046875 9.644531 -42.722656 13.40625 -47.390625 C 17.175781 -52.054688 21.664062 -55.578125 26.875 -57.953125 C 32.09375 -60.335938 37.800781 -61.53125 44 -61.53125 C 51.59375 -61.53125 57.523438 -59.738281 61.796875 -56.15625 C 66.078125 -52.570312 68.21875 -47.40625 68.21875 -40.65625 C 68.21875 -37.46875 67.738281 -34.035156 66.78125 -30.359375 Z M 42.921875 -29.734375 C 45.265625 -38.046875 46.4375 -43.890625 46.4375 -47.265625 C 46.4375 -49.191406 46.101562 -50.570312 45.4375 -51.40625 C 44.78125 -52.25 43.757812 -52.671875 42.375 -52.671875 C 40.570312 -52.671875 38.945312 -51.945312 37.5 -50.5 C 36.050781 -49.0625 34.617188 -46.703125 33.203125 -43.421875 C 31.785156 -40.140625 30.265625 -35.578125 28.640625 -29.734375 C 26.234375 -21.296875 25.03125 -15.476562 25.03125 -12.28125 C 25.03125 -10.414062 25.359375 -9.0625 26.015625 -8.21875 C 26.679688 -7.375 27.738281 -6.953125 29.1875 -6.953125 C 30.988281 -6.953125 32.613281 -7.691406 34.0625 -9.171875 C 35.507812 -10.648438 36.925781 -13.015625 38.3125 -16.265625 C 39.695312 -19.515625 41.234375 -24.003906 42.921875 -29.734375 Z M 42.921875 -29.734375 "/></g></g></g><g fill="#000000" fill-opacity="1"><g transform="translate(94.559115, 249.037068)"><g><path d="M 53.671875 -12.46875 C 53.554688 -11.988281 53.5 -11.628906 53.5 -11.390625 C 53.5 -10.960938 53.601562 -10.628906 53.8125 -10.390625 C 54.019531 -10.148438 54.304688 -10.03125 54.671875 -10.03125 C 55.390625 -10.03125 56.003906 -10.34375 56.515625 -10.96875 C 57.023438 -11.601562 57.375 -11.921875 57.5625 -11.921875 C 57.863281 -11.921875 58.117188 -11.722656 58.328125 -11.328125 C 58.535156 -10.941406 58.640625 -10.476562 58.640625 -9.9375 C 58.703125 -8.25 58.097656 -6.578125 56.828125 -4.921875 C 55.566406 -3.265625 53.789062 -1.894531 51.5 -0.8125 C 49.21875 0.269531 46.660156 0.8125 43.828125 0.8125 C 40.273438 0.8125 37.441406 0.0859375 35.328125 -1.359375 C 33.222656 -2.804688 31.867188 -4.703125 31.265625 -7.046875 C 29.097656 -4.640625 26.703125 -2.816406 24.078125 -1.578125 C 21.460938 -0.347656 18.796875 0.265625 16.078125 0.265625 C 11.867188 0.265625 8.332031 -0.769531 5.46875 -2.84375 C 2.601562 -4.925781 1.171875 -7.832031 1.171875 -11.5625 C 1.171875 -13.25 1.472656 -15 2.078125 -16.8125 L 7.859375 -35.6875 C 8.035156 -36.226562 8.125 -36.679688 8.125 -37.046875 C 8.125 -37.710938 7.972656 -38.238281 7.671875 -38.625 C 7.378906 -39.019531 6.929688 -39.425781 6.328125 -39.84375 C 5.722656 -40.332031 5.300781 -40.753906 5.0625 -41.109375 C 4.820312 -41.472656 4.789062 -41.957031 4.96875 -42.5625 C 5.332031 -43.945312 7.226562 -45.164062 10.65625 -46.21875 C 14.09375 -47.269531 17.679688 -47.796875 21.421875 -47.796875 C 24.910156 -47.796875 27.46875 -47.132812 29.09375 -45.8125 C 30.71875 -44.488281 31.53125 -42.679688 31.53125 -40.390625 C 31.53125 -39.003906 31.320312 -37.679688 30.90625 -36.421875 L 25.203125 -17.625 C 24.960938 -16.957031 24.84375 -16.320312 24.84375 -15.71875 C 24.84375 -14.875 25.082031 -14.238281 25.5625 -13.8125 C 26.050781 -13.394531 26.6875 -13.1875 27.46875 -13.1875 C 28.613281 -13.1875 29.546875 -13.519531 30.265625 -14.1875 C 30.992188 -14.851562 31.71875 -15.96875 32.4375 -17.53125 L 37.953125 -35.6875 C 38.128906 -36.226562 38.21875 -36.679688 38.21875 -37.046875 C 38.21875 -37.710938 38.066406 -38.238281 37.765625 -38.625 C 37.460938 -39.019531 37.039062 -39.425781 36.5 -39.84375 C 35.90625 -40.332031 35.484375 -40.753906 35.234375 -41.109375 C 34.992188 -41.472656 34.96875 -41.957031 35.15625 -42.5625 C 35.457031 -43.945312 37.320312 -45.164062 40.75 -46.21875 C 44.1875 -47.269531 47.769531 -47.796875 51.5 -47.796875 C 55 -47.796875 57.578125 -47.132812 59.234375 -45.8125 C 60.890625 -44.488281 61.71875 -42.710938 61.71875 -40.484375 C 61.71875 -39.335938 61.476562 -37.984375 61 -36.421875 Z M 53.671875 -12.46875 "/></g></g></g><g fill="#000000" fill-opacity="1"><g transform="translate(156.547511, 249.037068)"><g><path d="M 23.765625 -47.796875 C 27.253906 -47.796875 29.8125 -47.132812 31.4375 -45.8125 C 33.0625 -44.488281 33.875 -42.679688 33.875 -40.390625 C 33.875 -39.003906 33.664062 -37.679688 33.25 -36.421875 L 24.9375 -9.390625 C 24.75 -8.671875 24.65625 -8.039062 24.65625 -7.5 C 24.65625 -6.71875 24.804688 -6.097656 25.109375 -5.640625 C 25.410156 -5.191406 25.832031 -4.757812 26.375 -4.34375 C 26.800781 -3.914062 27.101562 -3.566406 27.28125 -3.296875 C 27.457031 -3.023438 27.488281 -2.679688 27.375 -2.265625 C 27.070312 -1.472656 26.46875 -0.894531 25.5625 -0.53125 C 24.65625 -0.175781 23.269531 0 21.40625 0 L 0.8125 0 C -0.757812 0 -1.90625 -0.253906 -2.625 -0.765625 C -3.34375 -1.273438 -3.582031 -1.953125 -3.34375 -2.796875 C -3.101562 -3.523438 -2.472656 -4.160156 -1.453125 -4.703125 C -0.546875 -5.179688 0.207031 -5.75 0.8125 -6.40625 C 1.414062 -7.070312 1.925781 -8.128906 2.34375 -9.578125 L 10.203125 -35.6875 C 10.378906 -36.226562 10.46875 -36.679688 10.46875 -37.046875 C 10.46875 -37.710938 10.316406 -38.238281 10.015625 -38.625 C 9.722656 -39.019531 9.273438 -39.425781 8.671875 -39.84375 C 8.066406 -40.332031 7.644531 -40.753906 7.40625 -41.109375 C 7.164062 -41.472656 7.132812 -41.957031 7.3125 -42.5625 C 7.675781 -43.945312 9.570312 -45.164062 13 -46.21875 C 16.4375 -47.269531 20.023438 -47.796875 23.765625 -47.796875 Z M 29.8125 -67.765625 C 32.164062 -67.765625 34.125 -66.992188 35.6875 -65.453125 C 37.25 -63.921875 38.03125 -62.039062 38.03125 -59.8125 C 38.03125 -58.25 37.625 -56.710938 36.8125 -55.203125 C 36 -53.703125 34.851562 -52.484375 33.375 -51.546875 C 31.90625 -50.617188 30.265625 -50.15625 28.453125 -50.15625 C 26.171875 -50.15625 24.257812 -50.921875 22.71875 -52.453125 C 21.1875 -53.992188 20.390625 -55.90625 20.328125 -58.1875 C 20.328125 -59.695312 20.71875 -61.1875 21.5 -62.65625 C 22.28125 -64.132812 23.394531 -65.351562 24.84375 -66.3125 C 26.289062 -67.28125 27.945312 -67.765625 29.8125 -67.765625 Z M 29.8125 -67.765625 "/></g></g></g><g fill="#000000" fill-opacity="1"><g transform="translate(189.62004, 249.037068)"><g><path d="M 44.09375 -47.796875 C 47.289062 -47.796875 49.941406 -46.648438 52.046875 -44.359375 C 54.148438 -42.078125 55.203125 -38.945312 55.203125 -34.96875 C 55.203125 -29.601562 53.332031 -24.117188 49.59375 -18.515625 C 45.863281 -12.921875 41.140625 -8.300781 35.421875 -4.65625 C 29.703125 -1.007812 24.128906 0.8125 18.703125 0.8125 C 13.523438 0.8125 9.320312 -0.238281 6.09375 -2.34375 C 2.875 -4.457031 1.265625 -7.472656 1.265625 -11.390625 C 1.265625 -12.828125 1.535156 -14.453125 2.078125 -16.265625 L 7.765625 -35.6875 C 7.890625 -36.175781 7.953125 -36.539062 7.953125 -36.78125 C 7.953125 -37.382812 7.800781 -37.894531 7.5 -38.3125 C 7.195312 -38.726562 6.773438 -39.179688 6.234375 -39.671875 C 5.328125 -40.453125 4.875 -41.144531 4.875 -41.75 C 4.8125 -42.59375 5.320312 -43.492188 6.40625 -44.453125 C 7.5 -45.421875 9.023438 -46.21875 10.984375 -46.84375 C 12.941406 -47.476562 15.15625 -47.796875 17.625 -47.796875 C 21.65625 -47.796875 24.800781 -46.816406 27.0625 -44.859375 C 29.320312 -42.898438 30.453125 -40.359375 30.453125 -37.234375 C 30.453125 -35.847656 30.210938 -34.335938 29.734375 -32.703125 L 23.859375 -13.375 C 23.671875 -12.832031 23.578125 -12.378906 23.578125 -12.015625 C 23.578125 -11.234375 23.847656 -10.628906 24.390625 -10.203125 C 24.929688 -9.785156 25.6875 -9.578125 26.65625 -9.578125 C 27.976562 -9.578125 29.523438 -10.164062 31.296875 -11.34375 C 33.078125 -12.519531 34.84375 -14.207031 36.59375 -16.40625 C 38.34375 -18.601562 39.757812 -21.207031 40.84375 -24.21875 C 38.4375 -26.320312 36.734375 -28.394531 35.734375 -30.4375 C 34.742188 -32.488281 34.25 -34.601562 34.25 -36.78125 C 34.25 -39.851562 35.09375 -42.457031 36.78125 -44.59375 C 38.46875 -46.726562 40.90625 -47.796875 44.09375 -47.796875 Z M 44.09375 -47.796875 "/></g></g></g><g fill="#000000" fill-opacity="1"><g transform="translate(243.746931, 249.037068)"><g><path d="M 30.625 -48.25 C 38.28125 -48.25 43.820312 -47.03125 47.25 -44.59375 C 50.6875 -42.15625 52.40625 -39.035156 52.40625 -35.234375 C 52.40625 -34.085938 52.285156 -33.035156 52.046875 -32.078125 C 51.140625 -28.097656 48.625 -25.25 44.5 -23.53125 C 40.375 -21.820312 35.507812 -20.96875 29.90625 -20.96875 C 27.070312 -20.96875 24.421875 -21.144531 21.953125 -21.5 C 21.890625 -18.375 22.734375 -16.175781 24.484375 -14.90625 C 26.234375 -13.644531 28.675781 -13.015625 31.8125 -13.015625 C 33.25 -13.015625 34.628906 -13.175781 35.953125 -13.5 C 37.285156 -13.832031 38.972656 -14.332031 41.015625 -15 C 42.703125 -15.601562 43.847656 -15.90625 44.453125 -15.90625 C 45.117188 -15.90625 45.453125 -15.515625 45.453125 -14.734375 C 45.515625 -12.617188 44.726562 -10.398438 43.09375 -8.078125 C 41.46875 -5.765625 39.054688 -3.796875 35.859375 -2.171875 C 32.671875 -0.546875 28.820312 0.265625 24.3125 0.265625 C 17.625 0.265625 12.140625 -1.414062 7.859375 -4.78125 C 3.585938 -8.15625 1.453125 -13.066406 1.453125 -19.515625 C 1.453125 -21.328125 1.691406 -23.4375 2.171875 -25.84375 C 3.671875 -33.25 6.96875 -38.832031 12.0625 -42.59375 C 17.15625 -46.363281 23.34375 -48.25 30.625 -48.25 Z M 22.59375 -26.921875 C 22.832031 -26.867188 23.160156 -26.84375 23.578125 -26.84375 C 26.109375 -26.84375 28.035156 -28.015625 29.359375 -30.359375 C 30.691406 -32.710938 31.328125 -35.332031 31.265625 -38.21875 C 31.203125 -39.90625 30.71875 -40.75 29.8125 -40.75 C 29.15625 -40.75 28.375 -40.222656 27.46875 -39.171875 C 26.5625 -38.117188 25.671875 -36.535156 24.796875 -34.421875 C 23.929688 -32.316406 23.195312 -29.816406 22.59375 -26.921875 Z M 22.59375 -26.921875 "/></g></g></g><g fill="#000000" fill-opacity="1"><g transform="translate(294.349691, 249.037068)"><g><path d="M 44.359375 -47.796875 C 47.734375 -47.796875 50.429688 -46.769531 52.453125 -44.71875 C 54.472656 -42.675781 55.484375 -40.148438 55.484375 -37.140625 C 55.484375 -35.992188 55.363281 -34.9375 55.125 -33.96875 C 54.519531 -31.5 53.375 -29.601562 51.6875 -28.28125 C 50 -26.957031 47.976562 -26.296875 45.625 -26.296875 C 43.34375 -26.296875 41.613281 -26.835938 40.4375 -27.921875 C 39.257812 -29.003906 38.21875 -30.453125 37.3125 -32.265625 C 36.832031 -33.285156 36.378906 -34.035156 35.953125 -34.515625 C 35.535156 -34.992188 35.054688 -35.234375 34.515625 -35.234375 C 33.910156 -35.234375 33.382812 -34.992188 32.9375 -34.515625 C 32.488281 -34.035156 32.082031 -33.191406 31.71875 -31.984375 L 24.765625 -9.390625 C 24.640625 -9.097656 24.578125 -8.648438 24.578125 -8.046875 C 24.578125 -7.265625 24.800781 -6.613281 25.25 -6.09375 C 25.707031 -5.582031 26.328125 -5.085938 27.109375 -4.609375 C 27.828125 -4.128906 28.304688 -3.738281 28.546875 -3.4375 C 28.796875 -3.132812 28.890625 -2.742188 28.828125 -2.265625 C 28.703125 -1.472656 28.265625 -0.894531 27.515625 -0.53125 C 26.765625 -0.175781 25.484375 0 23.671875 0 L 0.546875 0 C -1.023438 0 -2.15625 -0.253906 -2.84375 -0.765625 C -3.539062 -1.273438 -3.796875 -1.953125 -3.609375 -2.796875 C -3.367188 -3.523438 -2.738281 -4.160156 -1.71875 -4.703125 C -0.8125 -5.179688 -0.0546875 -5.75 0.546875 -6.40625 C 1.148438 -7.070312 1.660156 -8.128906 2.078125 -9.578125 L 10.125 -35.6875 C 10.238281 -35.988281 10.296875 -36.410156 10.296875 -36.953125 C 10.296875 -37.617188 10.160156 -38.128906 9.890625 -38.484375 C 9.617188 -38.847656 9.179688 -39.300781 8.578125 -39.84375 C 7.984375 -40.332031 7.5625 -40.753906 7.3125 -41.109375 C 7.070312 -41.472656 7.046875 -41.957031 7.234375 -42.5625 C 7.585938 -43.945312 9.484375 -45.164062 12.921875 -46.21875 C 16.359375 -47.269531 19.941406 -47.796875 23.671875 -47.796875 C 26.140625 -47.796875 28.1875 -47.238281 29.8125 -46.125 C 31.445312 -45.007812 32.503906 -43.429688 32.984375 -41.390625 C 35.867188 -45.660156 39.660156 -47.796875 44.359375 -47.796875 Z M 44.359375 -47.796875 "/></g></g></g></svg>